<?xml version="1.0" encoding="utf-8"?>
<svg width="190px" height="190px" viewBox="0 0 190 190" version="1.1" xmlns:xlink="http://www.w3.org/1999/xlink" xmlns="http://www.w3.org/2000/svg">
  <g id="Group-11">
    <path d="M0 95C0 42.5329 42.5329 0 95 0C147.467 0 190 42.5329 190 95C190 147.467 147.467 190 95 190C42.5329 190 0 147.467 0 95Z" id="Oval" fill="#4E66F8" fill-rule="evenodd" stroke="none" />
    <g id="Group-10" transform="translate(33.51941 47.79355)">
      <path d="M11.6905 6.75371L11.6922 6.75271Q11.9792 6.58702 12.274 6.43561Q12.5687 6.2842 12.8706 6.14744Q13.1724 6.01067 13.4806 5.88888Q13.7888 5.7671 14.1026 5.66058Q14.4164 5.55406 14.735 5.46306Q15.0537 5.37207 15.3764 5.29682Q15.6991 5.22157 16.0252 5.16225Q16.3512 5.10293 16.6797 5.05967Q17.0083 5.01642 17.3386 4.98934Q17.6688 4.96226 18 4.95142Q18.3312 4.94057 18.6626 4.94599Q18.9939 4.95142 19.3246 4.97309Q19.6553 4.99476 19.9845 5.03264Q20.3137 5.07051 20.6406 5.12449Q20.9676 5.17847 21.2915 5.24843Q21.6154 5.31839 21.9355 5.40416Q22.2556 5.48992 22.5711 5.5913Q22.8866 5.69267 23.1967 5.80939Q23.5069 5.92612 23.8109 6.05793Q24.115 6.18974 24.4122 6.3363Q24.7094 6.48287 24.999 6.64384Q25.2887 6.80482 25.5701 6.97981Q25.8515 7.1548 26.124 7.34339Q26.3965 7.53198 26.6594 7.73371Q26.9223 7.93545 27.175 8.14984Q27.4277 8.36423 27.6695 8.59076Q27.9114 8.81729 28.1418 9.05541Q28.3723 9.29354 28.5908 9.54268Q28.8093 9.79183 29.0153 10.0514Q29.2213 10.311 29.4143 10.5803Q29.6074 10.8497 29.7869 11.1282Q29.9665 11.4067 30.1322 11.6937L63.6332 69.7191Q63.7989 70.0061 63.9503 70.3009Q64.1017 70.5957 64.2384 70.8975Q64.3752 71.1993 64.497 71.5075Q64.6188 71.8157 64.7253 72.1295Q64.8318 72.4433 64.9228 72.762Q65.0138 73.0806 65.0891 73.4033Q65.1643 73.7261 65.2236 74.0521Q65.2829 74.3781 65.3262 74.7067Q65.3694 75.0352 65.3965 75.3655Q65.4236 75.6957 65.4345 76.027Q65.4453 76.3582 65.4399 76.6895Q65.4344 77.0208 65.4128 77.3515Q65.3911 77.6822 65.3532 78.0114Q65.3154 78.3406 65.2614 78.6676Q65.2074 78.9945 65.1374 79.3184Q65.0675 79.6423 64.9817 79.9624Q64.8959 80.2825 64.7946 80.598Q64.6932 80.9135 64.5765 81.2237Q64.4597 81.5338 64.3279 81.8378Q64.1961 82.1419 64.0496 82.4391Q63.903 82.7363 63.742 83.026Q63.581 83.3156 63.4061 83.597Q63.2311 83.8784 63.0425 84.1509Q62.8539 84.4234 62.6522 84.6863Q62.4504 84.9492 62.236 85.2019Q62.0216 85.4546 61.7951 85.6965Q61.5686 85.9383 61.3305 86.1688Q61.0923 86.3992 60.8432 86.6177Q60.594 86.8362 60.3345 87.0422Q60.0749 87.2482 59.8055 87.4413Q59.5362 87.6343 59.2577 87.8139Q58.9792 87.9934 58.6922 88.1591L58.6904 88.1601Q58.4035 88.3258 58.1087 88.4772Q57.8139 88.6286 57.5121 88.7654Q57.2102 88.9022 56.902 89.0239Q56.5938 89.1457 56.2801 89.2522Q55.9663 89.3588 55.6476 89.4498Q55.329 89.5408 55.0062 89.616Q54.6835 89.6913 54.3575 89.7506Q54.0315 89.8099 53.7029 89.8531Q53.3744 89.8964 53.0441 89.9235Q52.7138 89.9506 52.3826 89.9614Q52.0514 89.9722 51.7201 89.9668Q51.3887 89.9614 51.0581 89.9397Q50.7274 89.918 50.3982 89.8802Q50.069 89.8423 49.742 89.7883Q49.4151 89.7343 49.0911 89.6644Q48.7672 89.5944 48.4471 89.5087Q48.1271 89.4229 47.8116 89.3215Q47.4961 89.2201 47.1859 89.1034Q46.8758 88.9867 46.5717 88.8549Q46.2677 88.7231 45.9705 88.5765Q45.6733 88.4299 45.3836 88.269Q45.094 88.108 44.8126 87.933Q44.5311 87.758 44.2587 87.5694Q43.9862 87.3808 43.7233 87.1791Q43.4604 86.9774 43.2077 86.763Q42.955 86.5486 42.7131 86.3221Q42.4713 86.0955 42.2408 85.8574Q42.0104 85.6193 41.7919 85.3701Q41.5734 85.121 41.3674 84.8614Q41.1614 84.6019 40.9683 84.3325Q40.7753 84.0631 40.5957 83.7846Q40.4162 83.5061 40.2505 83.2191L6.7495 25.1937Q6.5838 24.9067 6.43239 24.6119Q6.28099 24.3172 6.14422 24.0153Q6.00746 23.7135 5.88567 23.4053Q5.76388 23.0971 5.65736 22.7833Q5.55084 22.4695 5.45985 22.1509Q5.36886 21.8322 5.29361 21.5095Q5.21836 21.1868 5.15904 20.8607Q5.09971 20.5347 5.05646 20.2062Q5.01321 19.8776 4.98612 19.5473Q4.95904 19.2171 4.9482 18.8859Q4.93736 18.5547 4.94278 18.2233Q4.9482 17.892 4.96988 17.5613Q4.99155 17.2306 5.02942 16.9014Q5.0673 16.5722 5.12128 16.2453Q5.17526 15.9183 5.24522 15.5944Q5.31518 15.2705 5.40094 14.9504Q5.48671 14.6303 5.58808 14.3148Q5.68945 13.9993 5.80618 13.6892Q5.92291 13.379 6.05472 13.075Q6.18653 12.7709 6.33309 12.4737Q6.47966 12.1765 6.64063 11.8869Q6.80161 11.5972 6.9766 11.3158Q7.15159 11.0344 7.34018 10.7619Q7.52877 10.4894 7.7305 10.2265Q7.93223 9.96361 8.14662 9.71092Q8.36101 9.45823 8.58754 9.21637Q8.81407 8.97451 9.0522 8.74405Q9.29032 8.51359 9.53947 8.2951Q9.78862 8.0766 10.0482 7.8706Q10.3077 7.66459 10.5771 7.47157Q10.8465 7.27854 11.125 7.09897Q11.4035 6.9194 11.6905 6.75371Z" id="Rectangle" fill="#FFFFFF" fill-rule="evenodd" stroke="none" />
      <path d="M60.7883 6.7505L60.79 6.7495Q61.077 6.58381 61.3717 6.4324Q61.6665 6.28099 61.9684 6.14423Q62.2702 6.00747 62.5784 5.88568Q62.8866 5.76389 63.2004 5.65737Q63.5142 5.55085 63.8328 5.45986Q64.1515 5.36887 64.4742 5.29362Q64.7969 5.21837 65.1229 5.15905Q65.449 5.09972 65.7775 5.05647Q66.1061 5.01322 66.4363 4.98613Q66.7666 4.95905 67.0978 4.94821Q67.429 4.93737 67.7604 4.94279Q68.0917 4.94821 68.4224 4.96989Q68.753 4.99156 69.0822 5.02943Q69.4114 5.06731 69.7384 5.12129Q70.0654 5.17527 70.3893 5.24522Q70.7132 5.31518 71.0333 5.40095Q71.3534 5.48672 71.6689 5.58809Q71.9844 5.68946 72.2945 5.80619Q72.6046 5.92292 72.9087 6.05473Q73.2127 6.18653 73.5099 6.3331Q73.8071 6.47967 74.0968 6.64064Q74.3865 6.80161 74.6679 6.97661Q74.9493 7.1516 75.2218 7.34019Q75.4942 7.52878 75.7572 7.73051Q76.0201 7.93224 76.2728 8.14663Q76.5254 8.36102 76.7673 8.58755Q77.0092 8.81408 77.2396 9.05221Q77.4701 9.29033 77.6886 9.53948Q77.9071 9.78862 78.1131 10.0482Q78.3191 10.3078 78.5121 10.5771Q78.7051 10.8465 78.8847 11.125Q79.0643 11.4035 79.23 11.6905L112.731 69.7159Q112.897 70.0029 113.048 70.2977Q113.199 70.5925 113.336 70.8943Q113.473 71.1961 113.595 71.5043Q113.717 71.8125 113.823 72.1263Q113.93 72.4401 114.021 72.7588Q114.112 73.0774 114.187 73.4001Q114.262 73.7228 114.321 74.0489Q114.381 74.3749 114.424 74.7035Q114.467 75.032 114.494 75.3623Q114.521 75.6925 114.532 76.0238Q114.543 76.355 114.538 76.6863Q114.532 77.0176 114.511 77.3483Q114.489 77.679 114.451 78.0082Q114.413 78.3374 114.359 78.6644Q114.305 78.9913 114.235 79.3152Q114.165 79.6391 114.079 79.9592Q113.994 80.2793 113.892 80.5948Q113.791 80.9103 113.674 81.2205Q113.558 81.5306 113.426 81.8346Q113.294 82.1387 113.147 82.4359Q113.001 82.7331 112.84 83.0228Q112.679 83.3124 112.504 83.5938Q112.329 83.8752 112.14 84.1477Q111.952 84.4202 111.75 84.6831Q111.548 84.946 111.334 85.1987Q111.119 85.4514 110.893 85.6933Q110.666 85.9351 110.428 86.1656Q110.19 86.396 109.941 86.6145Q109.692 86.833 109.432 87.039Q109.173 87.245 108.903 87.4381Q108.634 87.6311 108.355 87.8106Q108.077 87.9902 107.79 88.1559L107.788 88.1569Q107.501 88.3226 107.206 88.474Q106.912 88.6254 106.61 88.7622Q106.308 88.8989 106 89.0207Q105.692 89.1425 105.378 89.249Q105.064 89.3556 104.745 89.4466Q104.427 89.5376 104.104 89.6128Q103.781 89.688 103.455 89.7474Q103.129 89.8067 102.801 89.8499Q102.472 89.8932 102.142 89.9203Q101.812 89.9473 101.48 89.9582Q101.149 89.969 100.818 89.9636Q100.487 89.9582 100.156 89.9365Q99.8252 89.9148 99.496 89.877Q99.1667 89.8391 98.8398 89.7851Q98.5128 89.7311 98.1889 89.6612Q97.865 89.5912 97.5449 89.5055Q97.2248 89.4197 96.9093 89.3183Q96.5938 89.2169 96.2837 89.1002Q95.9736 88.9835 95.6695 88.8517Q95.3655 88.7199 95.0683 88.5733Q94.771 88.4267 94.4814 88.2658Q94.1917 88.1048 93.9103 87.9298Q93.6289 87.7548 93.3564 87.5662Q93.084 87.3776 92.8211 87.1759Q92.5582 86.9742 92.3055 86.7598Q92.0528 86.5454 91.8109 86.3189Q91.569 86.0923 91.3386 85.8542Q91.1081 85.6161 90.8896 85.3669Q90.6711 85.1178 90.4651 84.8582Q90.2591 84.5987 90.0661 84.3293Q89.8731 84.0599 89.6935 83.7814Q89.5139 83.5029 89.3483 83.2159L55.8473 25.1905Q55.6816 24.9035 55.5302 24.6087Q55.3788 24.314 55.242 24.0121Q55.1052 23.7103 54.9834 23.4021Q54.8617 23.0939 54.7551 22.7801Q54.6486 22.4663 54.5576 22.1476Q54.4666 21.829 54.3914 21.5063Q54.3161 21.1836 54.2568 20.8575Q54.1975 20.5315 54.1542 20.2029Q54.111 19.8744 54.0839 19.5441Q54.0568 19.2139 54.046 18.8827Q54.0351 18.5514 54.0406 18.2201Q54.046 17.8888 54.0677 17.5581Q54.0893 17.2274 54.1272 16.8982Q54.1651 16.569 54.2191 16.2421Q54.273 15.9151 54.343 15.5912Q54.4129 15.2673 54.4987 14.9472Q54.5845 14.6271 54.6859 14.3116Q54.7872 13.9961 54.904 13.686Q55.0207 13.3758 55.1525 13.0718Q55.2843 12.7677 55.4309 12.4705Q55.5774 12.1733 55.7384 11.8837Q55.8994 11.594 56.0744 11.3126Q56.2494 11.0312 56.438 10.7587Q56.6265 10.4862 56.8283 10.2233Q57.03 9.96041 57.2444 9.70772Q57.4588 9.45503 57.6853 9.21317Q57.9118 8.9713 58.15 8.74085Q58.3881 8.51039 58.6372 8.29189Q58.8864 8.0734 59.146 7.86739Q59.4055 7.66139 59.6749 7.46836Q59.9443 7.27534 60.2228 7.09577Q60.5013 6.9162 60.7883 6.7505Z" id="Rectangle-Copy" fill="#FFFFFF" fill-rule="evenodd" stroke="none" />
      <path d="M97.4806 13.0064C97.4806 5.82674 103.301 0.00643921 110.481 0.00643921C117.66 0.00643921 123.481 5.82674 123.481 13.0064C123.481 20.1861 117.66 26.0064 110.481 26.0064C103.301 26.0064 97.4806 20.1861 97.4806 13.0064Z" id="Oval-2" fill="#FAE800" fill-rule="evenodd" stroke="none" />
    </g>
  </g>
</svg>