<?xml version="1.0" encoding="utf-8"?>
<svg width="1115px" height="589px" viewBox="0 0 1115 589" version="1.1" xmlns:xlink="http://www.w3.org/1999/xlink" xmlns="http://www.w3.org/2000/svg">
  <g id="Rectangle-2-Copy-2" transform="translate(-229.13281 0)">
    <path d="M759.302 105.501L762.42 107.484Q766.437 110.041 770.325 112.789Q774.214 115.537 777.964 118.471Q781.714 121.405 785.317 124.517Q788.92 127.63 792.368 130.913Q795.816 134.197 799.1 137.644Q802.385 141.092 805.498 144.694Q808.611 148.297 811.545 152.047Q814.48 155.796 817.229 159.684Q819.978 163.572 822.535 167.588Q825.092 171.605 827.451 175.741Q829.81 179.877 831.965 184.123Q834.12 188.368 836.067 192.714Q838.013 197.059 839.747 201.494Q841.48 205.928 842.996 210.442Q844.512 214.956 845.807 219.538Q847.102 224.12 848.172 228.759Q849.243 233.398 850.088 238.084Q850.932 242.77 851.548 247.492Q852.164 252.213 852.55 256.959Q852.936 261.704 853.091 266.463Q853.246 271.222 853.169 275.983Q853.093 280.744 852.786 285.495Q852.478 290.247 851.941 294.978Q851.403 299.709 850.636 304.408Q849.869 309.107 848.875 313.764Q847.881 318.42 846.662 323.023Q845.443 327.626 844.002 332.164Q842.561 336.702 840.901 341.164Q839.242 345.627 837.367 350.004Q835.493 354.381 833.408 358.662Q831.323 362.942 829.033 367.117Q826.743 371.291 824.252 375.35L434.363 1010.76Q431.856 1014.85 429.148 1018.8Q426.441 1022.76 423.54 1026.58Q420.64 1030.4 417.554 1034.07Q414.468 1037.74 411.203 1041.25Q407.939 1044.76 404.504 1048.11Q401.07 1051.46 397.474 1054.63Q393.878 1057.8 390.129 1060.79Q386.38 1063.78 382.487 1066.58Q378.595 1069.38 374.568 1071.99Q370.541 1074.59 366.39 1076.99Q362.24 1079.39 357.975 1081.59Q353.71 1083.78 349.342 1085.76Q344.973 1087.74 340.513 1089.5Q336.052 1091.25 331.509 1092.79Q326.966 1094.33 322.353 1095.64Q317.74 1096.94 313.067 1098.02Q308.395 1099.1 303.675 1099.95Q298.955 1100.79 294.198 1101.4Q289.442 1102.01 284.661 1102.39Q279.881 1102.76 275.087 1102.9Q270.294 1103.03 265.499 1102.93Q260.705 1102.83 255.922 1102.49Q251.139 1102.15 246.378 1101.58Q241.617 1101 236.891 1100.19Q232.165 1099.38 227.485 1098.34Q222.804 1097.29 218.182 1096.02Q213.559 1094.74 209.005 1093.24Q204.451 1091.74 199.977 1090.01Q195.504 1088.28 191.121 1086.34Q186.739 1084.39 182.458 1082.23Q178.177 1080.07 174.009 1077.7Q169.84 1075.33 165.795 1072.75L162.677 1070.77Q158.66 1068.21 154.772 1065.47Q150.883 1062.72 147.133 1059.78Q143.383 1056.85 139.78 1053.74Q136.176 1050.62 132.729 1047.34Q129.281 1044.06 125.996 1040.61Q122.712 1037.16 119.599 1033.56Q116.486 1029.96 113.551 1026.21Q110.617 1022.46 107.868 1018.57Q105.119 1014.68 102.562 1010.67Q100.005 1006.65 97.646 1002.51Q95.2871 998.377 93.1318 994.131Q90.9765 989.886 89.0299 985.54Q87.0834 981.195 85.3501 976.76Q83.6168 972.326 82.1009 967.812Q80.585 963.298 79.29 958.716Q77.9951 954.134 76.9241 949.495Q75.8532 944.856 75.0088 940.17Q74.1644 935.484 73.5486 930.762Q72.9327 926.041 72.5468 921.295Q72.161 916.55 72.006 911.791Q71.851 907.032 71.9273 902.271Q72.0036 897.51 72.3109 892.759Q72.6183 888.007 73.156 883.276Q73.6937 878.545 74.4605 873.846Q75.2273 869.147 76.2214 864.49Q77.2155 859.834 78.4345 855.231Q79.6535 850.628 81.0946 846.09Q82.5357 841.552 84.1954 837.089Q85.8552 832.627 87.7297 828.25Q89.6041 823.873 91.6889 819.592Q93.7737 815.311 96.0639 811.137Q98.3541 806.963 100.844 802.904L490.734 167.495Q493.242 163.408 495.949 159.45Q498.657 155.492 501.557 151.674Q504.458 147.855 507.544 144.185Q510.63 140.514 513.894 137.002Q517.158 133.489 520.593 130.142Q524.027 126.796 527.623 123.623Q531.22 120.451 534.969 117.461Q538.718 114.471 542.61 111.671Q546.503 108.87 550.53 106.266Q554.556 103.662 558.707 101.261Q562.858 98.8599 567.123 96.6674Q571.387 94.475 575.756 92.4967Q580.124 90.5183 584.585 88.759Q589.046 86.9997 593.588 85.4637Q598.131 83.9277 602.744 82.6189Q607.357 81.31 612.03 80.2314Q616.702 79.1528 621.422 78.3073Q626.143 77.4617 630.899 76.8512Q635.655 76.2406 640.436 75.8667Q645.217 75.4927 650.01 75.3562Q654.803 75.2197 659.598 75.321Q664.392 75.4224 669.175 75.7612Q673.958 76.1001 678.719 76.6758Q683.48 77.2514 688.206 78.0623Q692.932 78.8732 697.613 79.9175Q702.293 80.9618 706.915 82.2368Q711.538 83.5118 716.092 85.0144Q720.646 86.517 725.119 88.2436Q729.593 89.9701 733.976 91.9163Q738.358 93.8625 742.639 96.0236Q746.92 98.1847 751.088 100.555Q755.257 102.926 759.302 105.501L759.302 105.501Z" id="Rectangle-2" fill="#E25770" fill-rule="evenodd" stroke="none" />
    <path d="M1113.3 105.501L1116.42 107.485Q1120.44 110.041 1124.33 112.789Q1128.21 115.538 1131.96 118.471Q1135.71 121.405 1139.32 124.518Q1142.92 127.63 1146.37 130.914Q1149.82 134.198 1153.1 137.645Q1156.39 141.092 1159.5 144.695Q1162.61 148.298 1165.55 152.047Q1168.48 155.797 1171.23 159.684Q1173.98 163.572 1176.54 167.589Q1179.09 171.605 1181.45 175.741Q1183.81 179.877 1185.97 184.123Q1188.12 188.369 1190.07 192.714Q1192.01 197.059 1193.75 201.494Q1195.48 205.929 1197 210.442Q1198.51 214.956 1199.81 219.538Q1201.1 224.12 1202.17 228.759Q1203.24 233.399 1204.09 238.085Q1204.93 242.771 1205.55 247.492Q1206.16 252.213 1206.55 256.959Q1206.94 261.705 1207.09 266.464Q1207.25 271.223 1207.17 275.983Q1207.09 280.744 1206.79 285.496Q1206.48 290.247 1205.94 294.978Q1205.4 299.709 1204.64 304.408Q1203.87 309.108 1202.88 313.764Q1201.88 318.421 1200.66 323.023Q1199.44 327.626 1198 332.164Q1196.56 336.702 1194.9 341.165Q1193.24 345.628 1191.37 350.005Q1189.49 354.381 1187.41 358.662Q1185.32 362.943 1183.03 367.117Q1180.74 371.292 1178.25 375.35L788.362 1010.76Q785.854 1014.85 783.147 1018.8Q780.439 1022.76 777.539 1026.58Q774.639 1030.4 771.552 1034.07Q768.466 1037.74 765.202 1041.25Q761.938 1044.77 758.503 1048.11Q755.069 1051.46 751.473 1054.63Q747.876 1057.8 744.127 1060.79Q740.378 1063.78 736.486 1066.58Q732.593 1069.38 728.567 1071.99Q724.54 1074.59 720.389 1076.99Q716.238 1079.39 711.974 1081.59Q707.709 1083.78 703.341 1085.76Q698.972 1087.74 694.511 1089.5Q690.051 1091.25 685.508 1092.79Q680.965 1094.33 676.352 1095.64Q671.739 1096.94 667.066 1098.02Q662.394 1099.1 657.674 1099.95Q652.953 1100.79 648.197 1101.4Q643.441 1102.01 638.66 1102.39Q633.88 1102.76 629.086 1102.9Q624.293 1103.03 619.499 1102.93Q614.704 1102.83 609.921 1102.49Q605.138 1102.15 600.377 1101.58Q595.616 1101 590.89 1100.19Q586.164 1099.38 581.484 1098.34Q576.803 1097.29 572.181 1096.02Q567.558 1094.74 563.004 1093.24Q558.45 1091.74 553.977 1090.01Q549.503 1088.28 545.12 1086.34Q540.738 1084.39 536.457 1082.23Q532.176 1080.07 528.008 1077.7Q523.84 1075.33 519.794 1072.75L516.676 1070.77Q512.659 1068.21 508.771 1065.46Q504.883 1062.72 501.133 1059.78Q497.383 1056.85 493.779 1053.74Q490.176 1050.62 486.728 1047.34Q483.28 1044.06 479.996 1040.61Q476.712 1037.16 473.598 1033.56Q470.485 1029.96 467.551 1026.21Q464.616 1022.46 461.867 1018.57Q459.118 1014.68 456.561 1010.67Q454.005 1006.65 451.646 1002.51Q449.287 998.377 447.131 994.131Q444.976 989.885 443.03 985.54Q441.083 981.195 439.35 976.76Q437.617 972.326 436.101 967.812Q434.585 963.298 433.29 958.716Q431.995 954.134 430.924 949.495Q429.853 944.856 429.009 940.17Q428.164 935.484 427.548 930.762Q426.932 926.041 426.547 921.295Q426.161 916.549 426.006 911.79Q425.851 907.032 425.927 902.271Q426.003 897.51 426.311 892.758Q426.618 888.007 427.156 883.276Q427.694 878.545 428.46 873.846Q429.227 869.147 430.221 864.49Q431.215 859.834 432.434 855.231Q433.653 850.628 435.095 846.09Q436.536 841.552 438.195 837.089Q439.855 832.627 441.73 828.25Q443.604 823.873 445.689 819.592Q447.774 815.311 450.064 811.137Q452.354 806.963 454.844 802.904L844.734 167.495Q847.242 163.408 849.949 159.45Q852.657 155.493 855.557 151.674Q858.457 147.855 861.544 144.185Q864.63 140.514 867.894 137.002Q871.158 133.489 874.593 130.142Q878.027 126.796 881.623 123.624Q885.219 120.451 888.968 117.461Q892.717 114.471 896.61 111.671Q900.503 108.87 904.529 106.266Q908.556 103.662 912.707 101.261Q916.858 98.86 921.122 96.6676Q925.387 94.4751 929.755 92.4968Q934.124 90.5185 938.585 88.7592Q943.046 86.9998 947.588 85.4639Q952.131 83.9279 956.744 82.619Q961.357 81.3101 966.03 80.2316Q970.702 79.153 975.422 78.3074Q980.143 77.4618 984.899 76.8513Q989.655 76.2408 994.436 75.8668Q999.217 75.4928 1004.01 75.3564Q1008.8 75.2199 1013.6 75.3212Q1018.39 75.4225 1023.18 75.7614Q1027.96 76.1003 1032.72 76.6759Q1037.48 77.2515 1042.21 78.0625Q1046.93 78.8734 1051.61 79.9177Q1056.29 80.9619 1060.92 82.237Q1065.54 83.512 1070.09 85.0146Q1074.65 86.5172 1079.12 88.2438Q1083.59 89.9703 1087.98 91.9165Q1092.36 93.8628 1096.64 96.0239Q1100.92 98.185 1105.09 100.556Q1109.26 102.926 1113.3 105.501L1113.3 105.501Z" id="Rectangle-2-Copy" fill="#D53955" fill-rule="evenodd" stroke="none" />
    <path d="M1503.79 105.501L1506.91 107.485Q1510.93 110.041 1514.82 112.789Q1518.7 115.537 1522.45 118.471Q1526.2 121.405 1529.81 124.517Q1533.41 127.63 1536.86 130.914Q1540.31 134.197 1543.59 137.645Q1546.88 141.092 1549.99 144.695Q1553.1 148.297 1556.04 152.047Q1558.97 155.797 1561.72 159.684Q1564.47 163.572 1567.03 167.589Q1569.58 171.605 1571.94 175.741Q1574.3 179.877 1576.46 184.123Q1578.61 188.369 1580.56 192.714Q1582.5 197.059 1584.24 201.494Q1585.97 205.929 1587.49 210.442Q1589 214.956 1590.3 219.538Q1591.59 224.12 1592.66 228.759Q1593.73 233.399 1594.58 238.084Q1595.42 242.77 1596.04 247.492Q1596.65 252.213 1597.04 256.959Q1597.43 261.705 1597.58 266.464Q1597.74 271.222 1597.66 275.983Q1597.58 280.744 1597.28 285.495Q1596.97 290.247 1596.43 294.978Q1595.89 299.709 1595.13 304.408Q1594.36 309.107 1593.37 313.764Q1592.37 318.42 1591.15 323.023Q1589.93 327.626 1588.49 332.164Q1587.05 336.702 1585.39 341.165Q1583.73 345.627 1581.86 350.004Q1579.98 354.381 1577.9 358.662Q1575.81 362.943 1573.52 367.117Q1571.23 371.292 1568.74 375.35L1178.85 1010.76Q1176.35 1014.85 1173.64 1018.8Q1170.93 1022.76 1168.03 1026.58Q1165.13 1030.4 1162.04 1034.07Q1158.96 1037.74 1155.69 1041.25Q1152.43 1044.76 1148.99 1048.11Q1145.56 1051.46 1141.96 1054.63Q1138.37 1057.8 1134.62 1060.79Q1130.87 1063.78 1126.98 1066.58Q1123.08 1069.38 1119.06 1071.99Q1115.03 1074.59 1110.88 1076.99Q1106.73 1079.39 1102.46 1081.59Q1098.2 1083.78 1093.83 1085.76Q1089.46 1087.74 1085 1089.49Q1080.54 1091.25 1076 1092.79Q1071.46 1094.33 1066.84 1095.64Q1062.23 1096.94 1057.56 1098.02Q1052.88 1099.1 1048.16 1099.95Q1043.44 1100.79 1038.69 1101.4Q1033.93 1102.01 1029.15 1102.39Q1024.37 1102.76 1019.58 1102.9Q1014.78 1103.03 1009.99 1102.93Q1005.19 1102.83 1000.41 1102.49Q995.628 1102.15 990.868 1101.58Q986.107 1101 981.381 1100.19Q976.654 1099.38 971.974 1098.34Q967.294 1097.29 962.671 1096.02Q958.048 1094.74 953.495 1093.24Q948.941 1091.74 944.467 1090.01Q939.993 1088.28 935.611 1086.34Q931.228 1084.39 926.948 1082.23Q922.667 1080.07 918.498 1077.7Q914.33 1075.33 910.284 1072.75L907.167 1070.77Q903.15 1068.21 899.261 1065.47Q895.373 1062.72 891.623 1059.78Q887.873 1056.85 884.27 1053.74Q880.666 1050.62 877.219 1047.34Q873.771 1044.06 870.486 1040.61Q867.202 1037.16 864.089 1033.56Q860.976 1029.96 858.041 1026.21Q855.107 1022.46 852.358 1018.57Q849.609 1014.68 847.052 1010.67Q844.495 1006.65 842.136 1002.51Q839.777 998.377 837.622 994.131Q835.466 989.886 833.52 985.54Q831.573 981.195 829.84 976.76Q828.107 972.326 826.591 967.812Q825.075 963.298 823.78 958.716Q822.485 954.134 821.414 949.495Q820.343 944.856 819.499 940.17Q818.654 935.484 818.039 930.762Q817.423 926.041 817.037 921.295Q816.651 916.55 816.496 911.791Q816.341 907.032 816.417 902.271Q816.494 897.51 816.801 892.759Q817.108 888.007 817.646 883.276Q818.184 878.545 818.951 873.846Q819.717 869.147 820.711 864.49Q821.706 859.834 822.925 855.231Q824.144 850.628 825.585 846.09Q827.026 841.552 828.685 837.089Q830.345 832.627 832.22 828.25Q834.094 823.873 836.179 819.592Q838.264 815.311 840.554 811.137Q842.844 806.963 845.334 802.904L1235.22 167.495Q1237.73 163.408 1240.44 159.45Q1243.15 155.492 1246.05 151.674Q1248.95 147.855 1252.03 144.185Q1255.12 140.514 1258.38 137.002Q1261.65 133.489 1265.08 130.142Q1268.52 126.796 1272.11 123.623Q1275.71 120.451 1279.46 117.461Q1283.21 114.471 1287.1 111.671Q1290.99 108.87 1295.02 106.266Q1299.05 103.662 1303.2 101.261Q1307.35 98.8599 1311.61 96.6675Q1315.88 94.475 1320.25 92.4967Q1324.61 90.5184 1329.07 88.7591Q1333.54 86.9997 1338.08 85.4638Q1342.62 83.9278 1347.23 82.6189Q1351.85 81.31 1356.52 80.2315Q1361.19 79.1529 1365.91 78.3073Q1370.63 77.4618 1375.39 76.8512Q1380.15 76.2407 1384.93 75.8667Q1389.71 75.4928 1394.5 75.3563Q1399.29 75.2198 1404.09 75.3211Q1408.88 75.4224 1413.67 75.7613Q1418.45 76.1002 1423.21 76.6758Q1427.97 77.2515 1432.7 78.0624Q1437.42 78.8733 1442.1 79.9176Q1446.78 80.9618 1451.41 82.2369Q1456.03 83.5119 1460.58 85.0145Q1465.14 86.5171 1469.61 88.2437Q1474.08 89.9702 1478.47 91.9164Q1482.85 93.8627 1487.13 96.0238Q1491.41 98.1849 1495.58 100.556Q1499.75 102.926 1503.79 105.501L1503.79 105.501Z" id="Rectangle-2-Copy-2" fill="#B5E742" fill-rule="evenodd" stroke="none" />
  </g>
</svg>